<?xml version="1.0" encoding="UTF-8"?>
<svg width="96px" height="96px" viewBox="0 0 96 96" version="1.1" xmlns="http://www.w3.org/2000/svg" xmlns:xlink="http://www.w3.org/1999/xlink">
    <!-- Generator: Sketch 46.2 (44496) - http://www.bohemiancoding.com/sketch -->
    <title>instagram</title>
    <desc>Created with Sketch.</desc>
    <defs></defs>
    <g id="Web" stroke="none" stroke-width="1" fill="none" fill-rule="evenodd">
        <g id="Sista-sidan" transform="translate(-340.000000, -536.000000)" fill="#000000">
            <g id="instagram" transform="translate(340.000000, 536.000000)">
                <path d="M57.5592204,42.5743807 C55.6101949,39.8555957 52.4137931,38.0689655 48.8275862,38.0689655 C45.2413793,38.0689655 42.0449775,39.8555957 40.095952,42.5743807 C38.8485757,44.3610108 38.0689655,46.5360388 38.0689655,48.866426 C38.0689655,54.7700734 42.9025487,59.5862069 48.8275862,59.5862069 C54.7526237,59.5862069 59.5862069,54.7700734 59.5862069,48.866426 C59.5862069,46.5360388 58.8065967,44.3610108 57.5592204,42.5743807 Z" id="Shape" fill-rule="nonzero"></path>
                <path d="M62.0974138,41.3793103 C62.8474138,42.8689655 63.2974138,45.2524138 63.2974138,47.337931 C63.2974138,56.1268966 56.0974138,63.3517241 47.1724138,63.3517241 C38.2474138,63.3517241 31.0474138,56.2013793 31.0474138,47.337931 C31.0474138,45.177931 31.4974138,42.8689655 32.2474138,41.3793103 L23.1724138,41.3793103 L23.1724138,65.2882759 C23.1724138,68.4165517 25.9474138,71.1724138 29.0974138,71.1724138 L65.2474138,71.1724138 C68.3974138,71.1724138 71.1724138,68.4165517 71.1724138,65.2882759 L71.1724138,41.3793103 L62.0974138,41.3793103 Z" id="Shape" fill-rule="nonzero"></path>
                <polygon id="Shape" fill-rule="nonzero" points="69.968652 24.9016984 61.2413793 24.9016984 61.2413793 34.7586207 71.1724138 34.7586207 71.1724138 26.1616058 71.1724138 24.8275862"></polygon>
                <path d="M71.8667724,0 L24.0570975,0 C10.8104679,0 0,10.8190476 0,24.0761905 L0,72 C0,85.1809524 10.8104679,96 24.0570975,96 L71.9429025,96 C85.1895321,96 96,85.1809524 96,71.9238095 L96,24.0761905 C95.9238699,10.8190476 85.1134021,0 71.8667724,0 Z M77.6526566,41.8285714 L77.6526566,41.8285714 L77.6526566,66.3619048 C77.6526566,72.7619048 72.704203,77.7142857 66.3092784,77.7142857 L29.6145916,77.7142857 C23.2196669,77.7142857 18.2712133,72.7619048 18.2712133,66.3619048 L18.2712133,41.8285714 L18.2712133,29.6380952 C18.2712133,23.2380952 23.2196669,18.2857143 29.6145916,18.2857143 L66.3092784,18.2857143 C72.704203,18.2857143 77.6526566,23.2380952 77.6526566,29.6380952 L77.6526566,41.8285714 Z" id="Shape" fill-rule="nonzero"></path>
                <path d="M10,0 L86,0 C91.5228475,-1.01453063e-15 96,4.4771525 96,10 L96,86 C96,91.5228475 91.5228475,96 86,96 L10,96 C4.4771525,96 6.76353751e-16,91.5228475 0,86 L0,10 L0,10 C-6.76353751e-16,4.4771525 4.4771525,1.01453063e-15 10,0 L10,0 Z M20.6666667,12.8 C15.1438192,12.8 10.6666667,17.2771525 10.6666667,22.8 L10.6666667,75.3333333 C10.6666667,80.8561808 15.1438192,85.3333333 20.6666667,85.3333333 L75.3333333,85.3333333 C80.8561808,85.3333333 85.3333333,80.8561808 85.3333333,75.3333333 L85.3333333,22.8 C85.3333333,17.2771525 80.8561808,12.8 75.3333333,12.8 L20.6666667,12.8 Z" id="Combined-Shape"></path>
            </g>
        </g>
    </g>
</svg>