<?xml version="1.0" encoding="UTF-8"?>
<svg width="150px" height="150px" viewBox="0 0 150 150" version="1.1" xmlns="http://www.w3.org/2000/svg" xmlns:xlink="http://www.w3.org/1999/xlink">
    <!-- Generator: Sketch 46.2 (44496) - http://www.bohemiancoding.com/sketch -->
    <title>youtube</title>
    <desc>Created with Sketch.</desc>
    <defs></defs>
    <g id="Page-1" stroke="none" stroke-width="1" fill="none" fill-rule="evenodd">
        <g id="Artboard" transform="translate(-253.000000, -243.000000)" fill="#000000">
            <g id="youtube" transform="translate(253.000000, 243.000000)">
                <polygon id="Shape" fill-rule="nonzero" points="66.3461538 60.5769231 66.3461538 86.5384615 92.3076923 73.6705686"></polygon>
                <path d="M112.380952,0 L37.5,0 C16.9047619,0 0,16.9047619 0,37.6190476 L0,112.5 C0,133.095238 16.9047619,150 37.5,150 L112.380952,150 C133.095238,150 150,133.095238 150,112.380952 L150,37.6190476 C150,16.9047619 133.095238,0 112.380952,0 Z M121.428571,78.6904762 C121.428571,86.547619 120.714286,94.5238095 120.714286,94.5238095 C120.714286,94.5238095 119.880952,101.190476 117.142857,104.166667 C113.571429,108.095238 109.642857,108.095238 107.857143,108.333333 C94.7619048,109.285714 75.1190476,109.404762 75.1190476,109.404762 C75.1190476,109.404762 50.7142857,109.047619 43.2142857,108.333333 C41.1904762,107.97619 36.4285714,108.095238 32.8571429,104.166667 C30,101.190476 29.2857143,94.5238095 29.2857143,94.5238095 C29.2857143,94.5238095 28.5714286,86.547619 28.5714286,78.6904762 L28.5714286,71.3095238 C28.5714286,63.452381 29.2857143,55.4761905 29.2857143,55.4761905 C29.2857143,55.4761905 30.1190476,48.8095238 32.8571429,45.8333333 C36.4285714,41.9047619 40.3571429,41.7857143 42.1428571,41.547619 C55.3571429,40.5952381 75,40.4761905 75,40.4761905 C75,40.4761905 94.6428571,40.5952381 107.738095,41.547619 C109.52381,41.7857143 113.571429,41.9047619 117.142857,45.7142857 C120,48.6904762 120.714286,55.4761905 120.714286,55.4761905 C120.714286,55.4761905 121.428571,63.452381 121.428571,71.3095238 L121.428571,78.6904762 Z" id="Shape" fill-rule="nonzero"></path>
                <path d="M10,0 L140,0 C145.522847,-1.01453063e-15 150,4.4771525 150,10 L150,140 C150,145.522847 145.522847,150 140,150 L10,150 C4.4771525,150 6.76353751e-16,145.522847 0,140 L0,10 L0,10 C-6.76353751e-16,4.4771525 4.4771525,1.01453063e-15 10,0 L10,0 Z M26.6666667,20 L26.6666667,20 C21.1438192,20 16.6666667,24.4771525 16.6666667,30 L16.6666667,123.333333 C16.6666667,128.856181 21.1438192,133.333333 26.6666667,133.333333 L26.6666667,133.333333 L123.333333,133.333333 C128.856181,133.333333 133.333333,128.856181 133.333333,123.333333 L133.333333,30 C133.333333,24.4771525 128.856181,20 123.333333,20 L26.6666667,20 Z" id="Combined-Shape"></path>
            </g>
        </g>
    </g>
</svg>