<?xml version="1.0" encoding="utf-8"?>
<!-- Generator: Adobe Illustrator 16.0.0, SVG Export Plug-In . SVG Version: 6.00 Build 0)  -->
<!DOCTYPE svg PUBLIC "-//W3C//DTD SVG 1.1//EN" "http://www.w3.org/Graphics/SVG/1.1/DTD/svg11.dtd">
<svg version="1.1" id="Layer_1" xmlns="http://www.w3.org/2000/svg" xmlns:xlink="http://www.w3.org/1999/xlink" x="0px" y="0px"
	 width="841.89px" height="595.28px" viewBox="0 0 841.89 595.28" enable-background="new 0 0 841.89 595.28" xml:space="preserve">
<path fill="#FFD85F" d="M519.43,199.356H341.527c-14.031,0-25.512,11.48-25.512,25.512v163.027c0,14.031,11.48,25.512,25.512,25.512
	H519.43c14.031,0,25.512-11.48,25.512-25.512V224.868C544.941,210.836,533.461,199.356,519.43,199.356z M408.236,321.832
	c0,3-0.52,5.789-1.558,8.365c-1.039,2.578-2.491,4.809-4.356,6.693c-1.866,1.885-4.087,3.355-6.664,4.414
	c-2.578,1.059-5.386,1.586-8.424,1.586h-54.986v-15h54.986c1.846,0,3.289-0.529,4.327-1.588c1.039-1.057,1.558-2.547,1.558-4.471
	v-61.679h15.117V321.832z M435.21,338.246c-0.404,0.904-0.943,1.693-1.615,2.365c-0.674,0.674-1.463,1.203-2.365,1.588
	c-0.904,0.385-1.857,0.576-2.857,0.576c-1.037,0-2.01-0.191-2.913-0.576c-0.904-0.385-1.693-0.914-2.365-1.588
	c-0.674-0.672-1.203-1.461-1.587-2.365c-0.385-0.902-0.577-1.875-0.577-2.914c0-1,0.192-1.951,0.577-2.855
	c0.384-0.902,0.913-1.691,1.587-2.365c0.672-0.672,1.461-1.211,2.365-1.615c0.903-0.404,1.876-0.605,2.913-0.605
	c1,0,1.953,0.201,2.857,0.605c0.902,0.404,1.691,0.943,2.365,1.615c0.672,0.674,1.211,1.463,1.615,2.365
	c0.404,0.904,0.605,1.855,0.605,2.855C435.815,336.371,435.614,337.344,435.21,338.246z M527.584,326.533
	c-0.75,2.367-1.741,4.453-2.972,6.262c-1.231,1.807-2.674,3.346-4.327,4.615c-1.654,1.27-3.366,2.307-5.135,3.115
	c-1.771,0.809-3.568,1.404-5.396,1.789s-3.548,0.576-5.163,0.576h-57.871v-15h57.871c2.885,0,5.125-0.846,6.722-2.539
	c1.596-1.693,2.395-3.961,2.395-6.809c0-1.385-0.212-2.654-0.635-3.809c-0.424-1.154-1.03-2.154-1.817-3
	c-0.789-0.846-1.751-1.5-2.886-1.961c-1.135-0.463-2.394-0.693-3.778-0.693h-34.504c-2.423,0-5.039-0.432-7.847-1.299
	c-2.809-0.865-5.414-2.258-7.818-4.182s-4.404-4.443-6-7.559c-1.597-3.115-2.395-6.924-2.395-11.424c0-4.5,0.798-8.299,2.395-11.396
	c1.596-3.096,3.596-5.616,6-7.559c2.404-1.942,5.01-3.346,7.818-4.212c2.808-0.865,5.424-1.298,7.847-1.298h51.062v15.001h-51.062
	c-2.847,0-5.068,0.866-6.664,2.597c-1.597,1.731-2.395,4.02-2.395,6.866c0,2.885,0.798,5.164,2.395,6.837
	c1.596,1.673,3.817,2.51,6.664,2.51h34.504h0.115c1.615,0.039,3.326,0.26,5.135,0.664c1.808,0.403,3.606,1.029,5.395,1.875
	c1.789,0.847,3.491,1.914,5.106,3.203c1.615,1.289,3.048,2.836,4.299,4.645c1.249,1.809,2.24,3.885,2.971,6.23
	c0.73,2.348,1.097,5.002,1.097,7.963C528.709,321.506,528.334,324.168,527.584,326.533z"/>
</svg>
