<?xml version="1.0" encoding="utf-8"?>
<!-- Generator: Adobe Illustrator 16.0.0, SVG Export Plug-In . SVG Version: 6.00 Build 0)  -->
<!DOCTYPE svg PUBLIC "-//W3C//DTD SVG 1.1//EN" "http://www.w3.org/Graphics/SVG/1.1/DTD/svg11.dtd">
<svg version="1.1" id="Layer_1" xmlns="http://www.w3.org/2000/svg" xmlns:xlink="http://www.w3.org/1999/xlink" x="0px" y="0px"
	 width="100px" height="100px" viewBox="0 0 100 100" enable-background="new 0 0 100 100" xml:space="preserve">
<g>

		<circle fill="none" stroke="#F9F9F9" stroke-width="3" stroke-miterlimit="10" stroke-dasharray="11.6925,11.6925" cx="50" cy="50" r="48.396">
			<animateTransform  accumulate="none" additive="replace" calcMode="linear" attributeName="transform" dur="5s" restart="always" to="360 50 50" from="0 50 50" attributeType="XML" repeatCount="indefinite" fill="remove" type="rotate"></animateTransform>
		</circle>
</g>
<g>
	<circle fill="#020202" cx="50" cy="50" r="39.816"/>

		<circle fill="none" stroke="#FFFFFF" stroke-width="2" stroke-miterlimit="10" stroke-dasharray="5.0021,5.0021" cx="50" cy="50" r="39.816">
			<animateTransform  accumulate="none" additive="replace" calcMode="linear" attributeName="transform" dur="5s" restart="always" to="-180 50 50" from="0 50 50" attributeType="XML" repeatCount="indefinite" fill="remove" type="rotate"></animateTransform>
		</circle>
</g>
<path fill="#F9F9F9" stroke="#FFFFFF" stroke-linejoin="round" stroke-miterlimit="10" d="M34.034,59.87
	c0,1.684-1.495,3.047-3.338,3.047l0,0c-1.843,0-3.338-1.363-3.338-3.047V40.13c0-1.683,1.495-3.048,3.338-3.048l0,0
	c1.844,0,3.338,1.365,3.338,3.048V59.87z">
<animateTransform  id="animate" values="0,15;0,-15;0,15" accumulate="none" additive="replace" calcMode="linear" attributeName="transform" dur="1s" restart="always" attributeType="XML" repeatCount="indefinite" fill="remove" type="translate">
		</animateTransform>
</path>
<path fill="#F9F9F9" stroke="#FFFFFF" stroke-linejoin="round" stroke-miterlimit="10" d="M43.83,59.869
	c0,1.686-1.495,3.049-3.338,3.049l0,0c-1.843,0-3.338-1.363-3.338-3.049V40.13c0-1.683,1.495-3.048,3.338-3.048l0,0
	c1.844,0,3.338,1.365,3.338,3.048V59.869z">
<animateTransform id="animate" values="0,20;0,-20;0,20" accumulate="none" additive="replace" calcMode="linear" attributeName="transform" dur="1s" restart="always" attributeType="XML" repeatCount="indefinite" fill="remove" type="translate">
		</animateTransform>
</path>
<path fill="#F9F9F9" stroke="#FFFFFF" stroke-linejoin="round" stroke-miterlimit="10" d="M53.338,59.869
	c0,1.685-1.494,3.049-3.338,3.049l0,0c-1.843,0-3.338-1.364-3.338-3.049v-19.74c0-1.683,1.495-3.048,3.338-3.048l0,0
	c1.844,0,3.338,1.365,3.338,3.048V59.869z">
<animateTransform id="animate" values="0,25;0,-25;0,25" accumulate="none" additive="replace" calcMode="linear" attributeName="transform" dur="1s" restart="always" attributeType="XML" repeatCount="indefinite" fill="remove" type="translate">
		</animateTransform>
</path>
<path fill="#F9F9F9" stroke="#FFFFFF" stroke-linejoin="round" stroke-miterlimit="10" d="M72.643,59.87
	c0,1.684-1.494,3.049-3.338,3.049l0,0c-1.844,0-3.338-1.365-3.338-3.049V40.13c0-1.683,1.494-3.048,3.338-3.048l0,0
	c1.844,0,3.338,1.365,3.338,3.048V59.87z">
<animateTransform id="animate" values="0,15;0,-15;0,15" accumulate="none" additive="replace" calcMode="linear" attributeName="transform" dur="1s" restart="always" attributeType="XML" repeatCount="indefinite" fill="remove" type="translate">
		</animateTransform>
</path>
<path fill="#F7F8F9" stroke="#F9F9F9" stroke-linejoin="round" stroke-miterlimit="10" d="M62.846,59.869
	c0,1.686-1.494,3.049-3.34,3.049l0,0c-1.844,0-3.338-1.363-3.338-3.049V40.13c0-1.683,1.494-3.048,3.338-3.048l0,0
	c1.846,0,3.34,1.365,3.34,3.048V59.869z">
<animateTransform id="animate" values="0,20;0,-20;0,20" accumulate="none" additive="replace" calcMode="linear" attributeName="transform" dur="1s" restart="always" attributeType="XML" repeatCount="indefinite" fill="remove" type="translate">
		</animateTransform>
</path>
</svg>
