<svg version="1.1" id="Layer_1" xmlns="http://www.w3.org/2000/svg" xmlns:xlink="http://www.w3.org/1999/xlink" x="0px" y="0px"
	 width="100px" height="100px" viewBox="0 0 100 100" enable-background="new 0 0 100 100" xml:space="preserve">
<rect x="6.361" y="10.194" fill="none" stroke="white" stroke-width="1" stroke-miterlimit="10" width="88.194" height="60.278"/>
<g>
	<path fill="none" stroke="white" stroke-miterlimit="10" d="M15.905,62.793c-2.618-1.166-4.763-2.826-6.435-4.984l5.94-7.127
		c2.508,3.389,5.368,5.082,8.58,5.082c4.356,0,6.534-2.551,6.534-7.656V26.129H14.289v-8.58H41.15v29.964
		c0,5.676-1.409,9.934-4.224,12.771c-2.816,2.838-6.953,4.256-12.408,4.256C21.394,64.541,18.522,63.957,15.905,62.793z"/>
	<path fill="none" stroke="white" stroke-miterlimit="10" d="M56.297,63.057c-3.41-0.99-6.15-2.277-8.217-3.861l3.629-8.052
		c1.98,1.452,4.334,2.618,7.062,3.497c2.728,0.881,5.455,1.32,8.184,1.32c3.036,0,5.28-0.449,6.732-1.354
		c1.452-0.9,2.178-2.1,2.178-3.596c0-1.1-0.429-2.013-1.287-2.739c-0.857-0.726-1.958-1.309-3.3-1.749
		c-1.343-0.439-3.157-0.924-5.445-1.452c-3.521-0.835-6.401-1.671-8.646-2.508c-2.244-0.835-4.17-2.178-5.775-4.026
		c-1.606-1.848-2.409-4.312-2.409-7.392c0-2.683,0.726-5.115,2.178-7.293c1.451-2.178,3.64-3.904,6.566-5.181
		c2.926-1.275,6.501-1.914,10.726-1.914c2.947,0,5.829,0.353,8.646,1.056c2.815,0.705,5.28,1.716,7.393,3.036l-3.3,8.118
		c-4.269-2.419-8.537-3.63-12.805-3.63c-2.992,0-5.203,0.485-6.633,1.452c-1.431,0.968-2.145,2.244-2.145,3.828
		s0.824,2.762,2.475,3.531c1.65,0.771,4.168,1.529,7.557,2.277c3.52,0.836,6.402,1.673,8.646,2.508
		c2.244,0.836,4.168,2.156,5.774,3.96c1.606,1.805,2.409,4.247,2.409,7.326c0,2.64-0.737,5.048-2.211,7.228
		c-1.475,2.178-3.686,3.904-6.633,5.18c-2.948,1.275-6.534,1.914-10.758,1.914C63.236,64.541,59.706,64.047,56.297,63.057z"/>
</g>
</svg>
