<?xml version="1.0" encoding="iso-8859-1"?>
<!-- Generator: Adobe Illustrator 16.0.0, SVG Export Plug-In . SVG Version: 6.00 Build 0)  -->
<!DOCTYPE svg PUBLIC "-//W3C//DTD SVG 1.1//EN" "http://www.w3.org/Graphics/SVG/1.1/DTD/svg11.dtd">
<svg version="1.1" id="Capa_1" xmlns="http://www.w3.org/2000/svg" xmlns:xlink="http://www.w3.org/1999/xlink" x="0px" y="0px"
	 width="980px" height="980.001px" viewBox="0 0 980 980.001" style="enable-background:new 0 0 980 980.001;" xml:space="preserve"
	>
<g>
	<g>
		<path d="M117.194,607.193c0,50.321,9.859,99.146,29.303,145.117c18.777,44.396,45.656,84.265,79.889,118.497
			c34.233,34.233,74.102,61.112,118.497,79.891c45.972,19.443,94.796,29.303,145.118,29.303c50.322,0,99.146-9.859,145.119-29.303
			c44.395-18.778,84.264-45.656,118.496-79.891c34.232-34.232,61.111-74.101,79.889-118.497
			c19.445-45.971,29.303-94.796,29.303-145.117c0-50.322-9.857-99.146-29.303-145.118c-18.777-44.396-45.656-84.263-79.889-118.496
			c-34.232-34.233-74.102-61.112-118.496-79.89c-26.879-11.369-54.734-19.455-83.293-24.216
			c39.27-21.814,65.908-63.722,65.908-111.741C617.735,57.301,560.434,0,490.001,0c-70.433,0-127.733,57.301-127.733,127.733
			c0,35.321,14.096,68.187,39.69,92.543c7.954,7.569,16.738,13.997,26.129,19.212c-28.528,4.762-56.353,12.843-83.204,24.2
			c-29.166,12.336-56.363,28.191-81.307,47.308l-43.067-43.067c-6.481-6.481-16.988-6.481-23.468,0l-50.292,50.292
			c-6.48,6.481-6.48,16.988,0,23.468l43.615,43.615c-17.589,23.693-32.276,49.366-43.867,76.771
			C127.053,508.046,117.194,556.871,117.194,607.193z M422.639,198.545c-19.585-18.638-30.371-43.786-30.371-70.811
			c0-53.891,43.844-97.733,97.733-97.733c53.89,0,97.734,43.843,97.734,97.733c0,43.429-28.477,80.325-67.734,93.017v-42.666h22.156
			c13.807,0,25-11.193,25-25s-11.193-25-25-25H437.845c-13.807,0-25,11.193-25,25s11.193,25,25,25h22.156v42.669
			C446.174,216.303,433.412,208.797,422.639,198.545z M211.825,406.766c10.696-14.778,22.624-28.823,35.775-41.974
			c11.78-11.78,24.274-22.584,37.372-32.399c50.969-38.195,111.187-61.195,175.029-66.695c9.921-0.855,19.925-1.312,30-1.312
			c10.076,0,20.08,0.457,30,1.312c80.248,6.913,154.779,41.471,212.402,99.094c64.748,64.748,100.404,150.834,100.404,242.4
			c0,91.567-35.656,177.653-100.404,242.401S581.569,950,490.001,950c-91.567,0-177.653-35.658-242.401-100.406
			c-64.748-64.748-100.406-150.834-100.406-242.4C147.194,534.224,169.861,464.749,211.825,406.766z"/>
		<path d="M500.598,911.652c157.432-5.383,284.541-130.218,293.533-286.706c0.555-9.653-7.209-17.753-16.879-17.753H506.901
			c-9.332,0-16.9-7.566-16.9-16.9V319.941c0-9.669-8.1-17.434-17.753-16.879c-59.5,3.419-114.413,23.927-159.935,56.672
			c-28.413,20.437-53.156,45.644-73.069,74.451c-32.095,46.431-51.644,102.196-53.702,162.409
			C179.529,772.485,324.709,917.665,500.598,911.652z"/>
	</g>
</g>
<g>
</g>
<g>
</g>
<g>
</g>
<g>
</g>
<g>
</g>
<g>
</g>
<g>
</g>
<g>
</g>
<g>
</g>
<g>
</g>
<g>
</g>
<g>
</g>
<g>
</g>
<g>
</g>
<g>
</g>
</svg>
