<?xml version="1.0" encoding="UTF-8"?>
<svg width="150px" height="150px" viewBox="0 0 150 150" version="1.1" xmlns="http://www.w3.org/2000/svg" xmlns:xlink="http://www.w3.org/1999/xlink">
    <!-- Generator: Sketch 46.2 (44496) - http://www.bohemiancoding.com/sketch -->
    <title>icon</title>
    <desc>Created with Sketch.</desc>
    <defs></defs>
    <g id="Page-1" stroke="none" stroke-width="1" fill="none" fill-rule="evenodd">
        <g id="Artboard" transform="translate(-253.000000, -243.000000)">
            <g id="icon" transform="translate(253.000000, 243.000000)">
                <path d="M121.875,0 L28.125,0 C12.5884615,0 0,12.5884615 0,28.125 L0,121.875 C0,137.411538 12.5884615,150 28.125,150 L121.875,150 C137.411538,150 150,137.411538 150,121.875 L150,28.125 C150,12.5884615 137.411538,0 121.875,0 Z M118.061538,80.7807692 L104.025,80.7807692 L104.025,132.726923 L80.5846154,132.726923 L80.5846154,80.7807692 L71.4923077,80.7807692 L71.4923077,63.2826923 L80.5846154,63.2826923 L80.5846154,52.1365385 C80.5903846,37.5230769 86.6596154,28.8461538 103.880769,28.8461538 L121.332692,28.8461538 L121.332692,46.2807692 L111.196154,46.2807692 C104.492308,46.2807692 104.053846,48.7788462 104.053846,53.4519231 L104.025,63.2769231 L119.971154,63.2769231 L118.061538,80.7807692 Z" id="Shape" fill="#030104" fill-rule="nonzero"></path>
                <path d="M10,0 L140,0 C145.522847,-1.01453063e-15 150,4.4771525 150,10 L150,140 C150,145.522847 145.522847,150 140,150 L10,150 C4.4771525,150 6.76353751e-16,145.522847 0,140 L0,10 L0,10 C-6.76353751e-16,4.4771525 4.4771525,1.01453063e-15 10,0 L10,0 Z M22.5,14.0625 C16.9771525,14.0625 12.5,18.5396525 12.5,24.0625 L12.5,132.1875 C12.5,137.710347 16.9771525,142.1875 22.5,142.1875 L129.0625,142.1875 C134.585347,142.1875 139.0625,137.710347 139.0625,132.1875 L139.0625,24.0625 C139.0625,18.5396525 134.585347,14.0625 129.0625,14.0625 L22.5,14.0625 Z" id="Combined-Shape" fill="#000000"></path>
            </g>
        </g>
    </g>
</svg>