<?xml version="1.0" encoding="UTF-8"?>
<svg width="200px" height="200px" viewBox="0 0 200 200" version="1.1" xmlns="http://www.w3.org/2000/svg" xmlns:xlink="http://www.w3.org/1999/xlink">
    <!-- Generator: Sketch 46.2 (44496) - http://www.bohemiancoding.com/sketch -->
    <title>instagram</title>
    <desc>Created with Sketch.</desc>
    <defs></defs>
    <g id="Page-1" stroke="none" stroke-width="1" fill="none" fill-rule="evenodd">
        <g id="Artboard" transform="translate(-228.000000, -218.000000)" fill="#000000">
            <g id="instagram" transform="translate(228.000000, 218.000000)">
                <path d="M119.915042,88.6966264 C115.854573,83.032491 109.195402,79.3103448 101.724138,79.3103448 C94.2528736,79.3103448 87.5937031,83.032491 83.5332334,88.6966264 C80.9345327,92.4187726 79.3103448,96.9500809 79.3103448,101.805054 C79.3103448,114.10432 89.3803098,124.137931 101.724138,124.137931 C114.067966,124.137931 124.137931,114.10432 124.137931,101.805054 C124.137931,96.9500809 122.513743,92.4187726 119.915042,88.6966264 Z" id="Shape" fill-rule="nonzero"></path>
                <path d="M129.369612,86.2068966 C130.932112,89.3103448 131.869612,94.2758621 131.869612,98.6206897 C131.869612,116.931034 116.869612,131.982759 98.2758621,131.982759 C79.6821121,131.982759 64.6821121,117.086207 64.6821121,98.6206897 C64.6821121,94.1206897 65.6196121,89.3103448 67.1821121,86.2068966 L48.2758621,86.2068966 L48.2758621,136.017241 C48.2758621,142.534483 54.0571121,148.275862 60.6196121,148.275862 L135.932112,148.275862 C142.494612,148.275862 148.275862,142.534483 148.275862,136.017241 L148.275862,86.2068966 L129.369612,86.2068966 Z" id="Shape" fill-rule="nonzero"></path>
                <polygon id="Shape" fill-rule="nonzero" points="145.768025 51.8785383 127.586207 51.8785383 127.586207 72.4137931 148.275862 72.4137931 148.275862 54.5033453 148.275862 51.7241379"></polygon>
                <path d="M149.722443,0 L50.1189532,0 C22.5218081,0 0,22.5396825 0,50.1587302 L0,150 C0,177.460317 22.5218081,200 50.1189532,200 L149.881047,200 C177.478192,200 200,177.460317 200,149.84127 L200,50.1587302 C199.841396,22.5396825 177.319588,0 149.722443,0 Z M161.776368,87.1428571 L161.776368,87.1428571 L161.776368,138.253968 C161.776368,151.587302 151.46709,161.904762 138.14433,161.904762 L61.6970658,161.904762 C48.3743061,161.904762 38.0650278,151.587302 38.0650278,138.253968 L38.0650278,87.1428571 L38.0650278,61.7460317 C38.0650278,48.4126984 48.3743061,38.0952381 61.6970658,38.0952381 L138.14433,38.0952381 C151.46709,38.0952381 161.776368,48.4126984 161.776368,61.7460317 L161.776368,87.1428571 Z" id="Shape" fill-rule="nonzero"></path>
                <path d="M10,0 L190,0 C195.522847,-1.01453063e-15 200,4.4771525 200,10 L200,190 C200,195.522847 195.522847,200 190,200 L10,200 C4.4771525,200 6.76353751e-16,195.522847 0,190 L0,10 L0,10 C-6.76353751e-16,4.4771525 4.4771525,1.01453063e-15 10,0 L10,0 Z M32.2222222,26.6666667 C26.6993747,26.6666667 22.2222222,31.1438192 22.2222222,36.6666667 L22.2222222,167.777778 C22.2222222,173.300625 26.6993747,177.777778 32.2222222,177.777778 L167.777778,177.777778 C173.300625,177.777778 177.777778,173.300625 177.777778,167.777778 L177.777778,36.6666667 C177.777778,31.1438192 173.300625,26.6666667 167.777778,26.6666667 L32.2222222,26.6666667 Z" id="Combined-Shape"></path>
            </g>
        </g>
    </g>
</svg>